<?xml version="1.0" encoding="UTF-8" standalone="no"?>
<!-- Generator: Adobe Illustrator 23.0.1, SVG Export Plug-In . SVG Version: 6.00 Build 0)  -->

<svg
   xmlns:dc="http://purl.org/dc/elements/1.1/"
   xmlns:cc="http://creativecommons.org/ns#"
   xmlns:rdf="http://www.w3.org/1999/02/22-rdf-syntax-ns#"
   xmlns:svg="http://www.w3.org/2000/svg"
   xmlns="http://www.w3.org/2000/svg"
   xmlns:sodipodi="http://sodipodi.sourceforge.net/DTD/sodipodi-0.dtd"
   xmlns:inkscape="http://www.inkscape.org/namespaces/inkscape"
   version="1.1"
   id="Livello_1"
   x="0px"
   y="0px"
   width="19.540354"
   height="24"
   viewBox="0 0 19.540354 24"
   enable-background="new 0 0 814 1000"
   xml:space="preserve"
   sodipodi:docname="apple.svg"
   inkscape:version="0.92.5 (2060ec1f9f, 2020-04-08)"><metadata
   id="metadata9"><rdf:RDF><cc:Work
       rdf:about=""><dc:format>image/svg+xml</dc:format><dc:type
         rdf:resource="http://purl.org/dc/dcmitype/StillImage" /><dc:title></dc:title></cc:Work></rdf:RDF></metadata><defs
   id="defs7" /><sodipodi:namedview
   pagecolor="#ffffff"
   bordercolor="#666666"
   borderopacity="1"
   objecttolerance="10"
   gridtolerance="10"
   guidetolerance="10"
   inkscape:pageopacity="0"
   inkscape:pageshadow="2"
   inkscape:window-width="1482"
   inkscape:window-height="860"
   id="namedview5"
   showgrid="false"
   fit-margin-top="0"
   fit-margin-left="0"
   fit-margin-right="0"
   fit-margin-bottom="0"
   inkscape:zoom="5.3400704"
   inkscape:cx="7.420817"
   inkscape:cy="18.524583"
   inkscape:window-x="458"
   inkscape:window-y="651"
   inkscape:window-maximized="0"
   inkscape:current-layer="Livello_1" />
<path
   d="m 18.916292,8.18242 c -0.139214,0.10801 -2.59706,1.49295 -2.59706,4.57246 0,3.56195 3.127513,4.82208 3.221122,4.85328 -0.0144,0.0768 -0.49685,1.72577 -1.648965,3.40594 -1.027303,1.47855 -2.10021,2.9547 -3.732373,2.9547 -1.632163,0 -2.052205,-0.9481 -3.936394,-0.9481 C 8.3864386,23.0207 7.7335734,24 6.2406241,24 4.7476748,24 3.7059706,22.63186 2.5082508,20.9517 1.1209121,18.9787 0,15.91359 0,13.0045 0,8.33843 3.0339034,5.86379 6.019802,5.86379 c 1.5865586,0 2.9090909,1.0417 3.9051905,1.0417 0.9480945,0 2.4266425,-1.10411 4.2316235,-1.10411 0.684068,0 3.141914,0.0624 4.759676,2.38104 z M 13.29973,3.82598 c 0.746475,-0.88569 1.274527,-2.11461 1.274527,-3.34353 0,-0.17042 -0.0144,-0.34324 -0.0456,-0.48245 -1.214522,0.0456 -2.659466,0.80888 -3.530753,1.81938 -0.684069,0.77768 -1.3225325,2.0066 -1.3225325,3.25233 0,0.18722 0.031203,0.37443 0.045605,0.43444 0.076808,0.0144 0.2016202,0.0312 0.3264325,0.0312 1.089709,0 2.460246,-0.72967 3.252325,-1.71137 z"
   id="path2"
   inkscape:connector-curvature="0"
   style="stroke-width:0.0240024;fill:#666666" />
</svg>