<?xml version="1.0" encoding="UTF-8" standalone="no"?>
<!-- Created with Inkscape (http://www.inkscape.org/) -->

<svg
   xmlns:dc="http://purl.org/dc/elements/1.1/"
   xmlns:cc="http://creativecommons.org/ns#"
   xmlns:rdf="http://www.w3.org/1999/02/22-rdf-syntax-ns#"
   xmlns:svg="http://www.w3.org/2000/svg"
   xmlns="http://www.w3.org/2000/svg"
   xmlns:sodipodi="http://sodipodi.sourceforge.net/DTD/sodipodi-0.dtd"
   xmlns:inkscape="http://www.inkscape.org/namespaces/inkscape"
   width="256"
   height="256"
   viewBox="0 0 67.733331 67.733334"
   version="1.1"
   id="svg8"
   inkscape:version="0.92.3 (2405546, 2018-03-11)"
   sodipodi:docname="austin_logo_black.svg"
   inkscape:export-filename="/home/gabriele/Projects/austin/art/austin_logo.png"
   inkscape:export-xdpi="48"
   inkscape:export-ydpi="48">
  <defs
     id="defs2" />
  <sodipodi:namedview
     id="base"
     pagecolor="#ffffff"
     bordercolor="#666666"
     borderopacity="1.0"
     inkscape:pageopacity="0"
     inkscape:pageshadow="2"
     inkscape:zoom="0.7"
     inkscape:cx="-389.14129"
     inkscape:cy="234.55804"
     inkscape:document-units="mm"
     inkscape:current-layer="layer1"
     showgrid="false"
     inkscape:window-width="1920"
     inkscape:window-height="1025"
     inkscape:window-x="0"
     inkscape:window-y="27"
     inkscape:window-maximized="1"
     units="px"
     fit-margin-top="0"
     fit-margin-left="0"
     fit-margin-right="0"
     fit-margin-bottom="0" />
  <metadata
     id="metadata5">
    <rdf:RDF>
      <cc:Work
         rdf:about="">
        <dc:format>image/svg+xml</dc:format>
        <dc:type
           rdf:resource="http://purl.org/dc/dcmitype/StillImage" />
        <dc:title />
      </cc:Work>
    </rdf:RDF>
  </metadata>
  <g
     inkscape:label="Layer 1"
     inkscape:groupmode="layer"
     id="layer1"
     transform="translate(-0.91509313,-214.07415)">
    <path
       style="fill:none;stroke:#000000;stroke-width:4.23333311;stroke-linecap:butt;stroke-linejoin:miter;stroke-miterlimit:4;stroke-dasharray:none;stroke-opacity:1"
       d="m 30.106182,252.20367 c 0,0 -1.657028,11.51275 -3.55672,12.98976 -2.922721,2.27243 -17.2270722,0.69599 -18.4495696,-1.00352 C 6.1654163,261.5006 4.8194828,251.94304 4.8194828,251.94304 H 63.172304 c 0,0 -1.345938,9.55756 -3.280425,12.24687 -1.222502,1.69951 -15.526925,3.27595 -18.449647,1.00352 -1.899692,-1.47701 -3.55672,-12.98976 -3.55672,-12.98976"
       id="path4504"
       inkscape:connector-curvature="0"
       sodipodi:nodetypes="cssccssc" />
    <path
       style="fill:#000000;fill-opacity:1;stroke:none;stroke-width:0.15888019px;stroke-linecap:butt;stroke-linejoin:miter;stroke-opacity:1"
       d="m 53.209034,235.19145 c 0,0 -3.242951,10.58725 -6.713181,13.10536 -6.512784,4.72593 -18.48566,5.27645 -26.403095,6.15953 -7.806042,0.87066 -18.2529663,-0.39888 -18.2529663,-0.39888 0,0 0.6854011,-17.33522 7.0986871,-24.07634 6.8568562,-7.20737 14.4260912,-9.89934 22.7900392,-11.07404 8.605263,-1.20858 18.266377,-0.0411 25.678923,4.49381 3.714692,2.27261 8.077008,7.24786 9.566452,11.33995 2.455238,6.74554 -1.373236,20.37124 -1.373236,20.37124 0,0 -1.786764,-8.65667 -5.149291,-12.03571 -6.115159,-6.14518 -7.242332,-7.88492 -7.242332,-7.88492 z"
       id="path4508"
       inkscape:connector-curvature="0"
       sodipodi:nodetypes="csscsssscsc" />
  </g>
</svg>
