<?xml version="1.0" encoding="UTF-8" standalone="no"?>
<!-- Created with Inkscape (http://www.inkscape.org/) -->

<svg
   xmlns:dc="http://purl.org/dc/elements/1.1/"
   xmlns:cc="http://creativecommons.org/ns#"
   xmlns:rdf="http://www.w3.org/1999/02/22-rdf-syntax-ns#"
   xmlns:svg="http://www.w3.org/2000/svg"
   xmlns="http://www.w3.org/2000/svg"
   xmlns:xlink="http://www.w3.org/1999/xlink"
   xmlns:sodipodi="http://sodipodi.sourceforge.net/DTD/sodipodi-0.dtd"
   xmlns:inkscape="http://www.inkscape.org/namespaces/inkscape"
   width="400"
   height="400"
   viewBox="0 0 105.83333 105.83334"
   version="1.1"
   id="svg8"
   inkscape:version="0.92.3 (2405546, 2018-03-11)"
   sodipodi:docname="austin_die_cut_sticker_twitter.svg"
   inkscape:export-filename="/home/gabriele/Projects/austin/art/austin_die_cut_sticker_twitter.png"
   inkscape:export-xdpi="48"
   inkscape:export-ydpi="48">
  <defs
     id="defs2">
    <linearGradient
       inkscape:collect="always"
       id="linearGradient938">
      <stop
         style="stop-color:#323232;stop-opacity:1"
         offset="0"
         id="stop934" />
      <stop
         style="stop-color:#3c3c3c;stop-opacity:1"
         offset="1"
         id="stop936" />
    </linearGradient>
    <linearGradient
       inkscape:collect="always"
       id="linearGradient930">
      <stop
         style="stop-color:#002255;stop-opacity:1;"
         offset="0"
         id="stop926" />
      <stop
         style="stop-color:#003481;stop-opacity:1"
         offset="1"
         id="stop928" />
    </linearGradient>
    <linearGradient
       inkscape:collect="always"
       id="linearGradient922">
      <stop
         style="stop-color:#ffffff;stop-opacity:1"
         offset="0"
         id="stop918" />
      <stop
         style="stop-color:#fafafa;stop-opacity:1"
         offset="1"
         id="stop920" />
    </linearGradient>
    <linearGradient
       inkscape:collect="always"
       id="linearGradient1073">
      <stop
         style="stop-color:#d45500;stop-opacity:1;"
         offset="0"
         id="stop1069" />
      <stop
         style="stop-color:#ff7920;stop-opacity:1"
         offset="1"
         id="stop1071" />
    </linearGradient>
    <linearGradient
       inkscape:collect="always"
       xlink:href="#linearGradient1073"
       id="linearGradient1075"
       x1="193.08435"
       y1="173.08507"
       x2="128.79347"
       y2="111.07853"
       gradientUnits="userSpaceOnUse" />
    <filter
       inkscape:collect="always"
       style="color-interpolation-filters:sRGB"
       id="filter1113"
       x="-0.0024184505"
       width="1.0048369"
       y="-0.0023818288"
       height="1.0047637">
      <feGaussianBlur
         inkscape:collect="always"
         stdDeviation="0.16708701"
         id="feGaussianBlur1115" />
    </filter>
    <filter
       inkscape:collect="always"
       style="color-interpolation-filters:sRGB"
       id="filter1125"
       x="-0.0060461266"
       width="1.0120924"
       y="-0.005954572"
       height="1.0119091">
      <feGaussianBlur
         inkscape:collect="always"
         stdDeviation="0.41771753"
         id="feGaussianBlur1127" />
    </filter>
    <linearGradient
       inkscape:collect="always"
       xlink:href="#linearGradient922"
       id="linearGradient924"
       x1="117.02784"
       y1="113.90667"
       x2="264.16757"
       y2="317.04242"
       gradientUnits="userSpaceOnUse" />
    <linearGradient
       inkscape:collect="always"
       xlink:href="#linearGradient930"
       id="linearGradient932"
       x1="165.17487"
       y1="217.14917"
       x2="127.35613"
       y2="164.2298"
       gradientUnits="userSpaceOnUse" />
    <linearGradient
       inkscape:collect="always"
       xlink:href="#linearGradient938"
       id="linearGradient940"
       x1="630.50562"
       y1="269.12384"
       x2="506.39212"
       y2="135.78369"
       gradientUnits="userSpaceOnUse" />
    <linearGradient
       inkscape:collect="always"
       xlink:href="#linearGradient922"
       id="linearGradient880"
       gradientUnits="userSpaceOnUse"
       x1="117.02784"
       y1="113.90667"
       x2="264.16757"
       y2="317.04242" />
    <linearGradient
       inkscape:collect="always"
       xlink:href="#linearGradient922"
       id="linearGradient882"
       gradientUnits="userSpaceOnUse"
       x1="117.02784"
       y1="113.90667"
       x2="264.16757"
       y2="317.04242" />
    <linearGradient
       inkscape:collect="always"
       xlink:href="#linearGradient922"
       id="linearGradient884"
       gradientUnits="userSpaceOnUse"
       x1="117.02784"
       y1="113.90667"
       x2="264.16757"
       y2="317.04242" />
    <linearGradient
       inkscape:collect="always"
       xlink:href="#linearGradient922"
       id="linearGradient886"
       gradientUnits="userSpaceOnUse"
       x1="117.02784"
       y1="113.90667"
       x2="264.16757"
       y2="317.04242" />
    <linearGradient
       inkscape:collect="always"
       xlink:href="#linearGradient938"
       id="linearGradient888"
       gradientUnits="userSpaceOnUse"
       x1="630.50562"
       y1="269.12384"
       x2="506.39212"
       y2="135.78369" />
    <linearGradient
       inkscape:collect="always"
       xlink:href="#linearGradient938"
       id="linearGradient890"
       gradientUnits="userSpaceOnUse"
       x1="630.50562"
       y1="269.12384"
       x2="506.39212"
       y2="135.78369" />
    <linearGradient
       inkscape:collect="always"
       xlink:href="#linearGradient938"
       id="linearGradient892"
       gradientUnits="userSpaceOnUse"
       x1="630.50562"
       y1="269.12384"
       x2="506.39212"
       y2="135.78369" />
  </defs>
  <sodipodi:namedview
     id="base"
     pagecolor="#ffffff"
     bordercolor="#666666"
     borderopacity="1.0"
     inkscape:pageopacity="0"
     inkscape:pageshadow="2"
     inkscape:zoom="0.98994948"
     inkscape:cx="172.07714"
     inkscape:cy="310.24493"
     inkscape:document-units="mm"
     inkscape:current-layer="layer1"
     showgrid="false"
     inkscape:window-width="1920"
     inkscape:window-height="1025"
     inkscape:window-x="0"
     inkscape:window-y="512"
     inkscape:window-maximized="1"
     units="px"
     fit-margin-top="0"
     fit-margin-left="0"
     fit-margin-right="0"
     fit-margin-bottom="0" />
  <metadata
     id="metadata5">
    <rdf:RDF>
      <cc:Work
         rdf:about="">
        <dc:format>image/svg+xml</dc:format>
        <dc:type
           rdf:resource="http://purl.org/dc/dcmitype/StillImage" />
        <dc:title></dc:title>
      </cc:Work>
    </rdf:RDF>
  </metadata>
  <g
     inkscape:label="Layer 1"
     inkscape:groupmode="layer"
     id="layer1"
     transform="translate(-74.262196,-176.90286)">
    <g
       id="g878"
       transform="matrix(0.51021553,0,0,0.51021553,44.939406,122.32534)">
      <g
         transform="translate(0.18898805,0.11070662)"
         id="g1016"
         style="fill:#9c9c9c;fill-opacity:1;stroke:none;stroke-width:0.5291667;stroke-miterlimit:4;stroke-dasharray:none;stroke-opacity:1;filter:url(#filter1125)">
        <g
           id="g1014"
           style="fill:#9c9c9c;fill-opacity:1;stroke:none;stroke-width:0.5291667;stroke-miterlimit:4;stroke-dasharray:none;stroke-opacity:1">
          <g
             id="g1012"
             style="fill:#9c9c9c;fill-opacity:1;stroke:none;stroke-width:0.5291667;stroke-miterlimit:4;stroke-dasharray:none;stroke-opacity:1">
            <path
               sodipodi:type="inkscape:offset"
               inkscape:radius="-22.934278"
               inkscape:original="M 304.45703 -55.375 C 286.92061 -55.45633 269.58205 -54.248861 252.67969 -51.875 C 190.17299 -43.096061 123.77087 -19.292875 68.970703 38.308594 C 32.024196 77.143715 22.417117 124.22463 15.138672 162.94336 C 7.8602266 201.66208 6.6308594 234.11914 6.6308594 234.11914 C 5.7885538 256.17106 18.118963 276.61841 38.015625 286.16406 C 38.198102 286.86868 38.314384 287.51624 38.501953 288.22266 C 42.411143 302.94525 44.342131 316.13285 58.568359 335.91016 C 73.34431 356.45159 82.615915 356.33766 90.119141 359.27734 C 97.622366 362.21702 104.20278 363.94318 111.17969 365.51562 C 111.86732 365.67061 112.63272 365.75444 113.32617 365.9043 C 111.58944 366.21135 109.84073 366.44837 108.11523 366.81445 C 102.00673 364.0957 95.45639 362.50559 88.78125 362.12109 L 77.046875 361.48047 C 76.48994 361.45057 75.932584 361.42912 75.375 361.41602 C 73.27911 361.36502 71.19274 361.34983 69.085938 361.36133 L 69.083984 361.36133 C 62.71115 361.39623 55.985154 361.67692 48.644531 362.1582 L 49.279297 362.12109 C 36.321302 362.82159 29.972672 359.60926 7.0234375 371.08398 C -22.284497 385.78241 -32.476878 422.58401 -14.90625 450.26562 C -25.083498 456.97431 -33.554725 465.33506 -39 473.50391 C -48.695023 487.97368 -55.375 506.75273 -55.375 525.78711 C -55.375 543.36903 -51.513081 561.16629 -44.275391 577.16406 C -34.326489 599.20521 -5.9697112 626.81641 26.880859 626.81641 C 36.813963 626.81641 47.868264 624.10703 58.294922 619.49609 C 64.117835 619.94511 69.002675 619.13672 73.386719 619.13672 C 86.003544 619.13672 88.048522 619.58731 98.900391 618.77734 C 106.49003 618.40616 113.26724 618.13403 124.25977 614.70898 C 126.96272 613.8668 130.11161 612.88446 133.7207 611.17188 C 147.05834 617.92686 161.47551 621.91016 175.33398 621.91016 C 184.41065 621.91016 193.99942 619.50485 203.23828 615.63672 C 214.75083 620.97824 227.74872 622.20349 240.05664 619.10742 C 245.5513 620.50213 251.31626 621.69727 260.49414 621.69727 C 275.01949 621.69727 289.0106 617.52254 300.83984 611.34766 C 303.42868 612.70957 306.12135 613.86422 308.89258 614.80078 C 325.93022 620.48003 335.46116 619.77734 348.37695 619.77734 C 358.76143 619.77734 369.93573 619.26914 382.22266 618.33594 C 385.23277 618.08533 388.21733 617.58889 391.14648 616.85156 C 396.31631 618.97972 403.16139 620.62891 412.83008 620.62891 C 418.48468 620.62891 423.04103 620.3492 431.04883 619.9043 L 430.49219 619.93359 C 435.79761 619.69242 439.72345 619.68377 441.35742 619.74219 L 439.52539 619.64648 C 444.39178 619.9821 449.37225 620.82282 460.70898 618.12109 C 470.36738 620.11534 478.54068 620.41602 487.32617 620.41602 C 496.51378 620.41602 506.86855 619.8148 520.87891 618.77148 C 523.75303 618.53328 526.60414 618.07094 529.40625 617.38867 C 534.08198 618.12945 538.90428 618.70898 545.35352 618.70898 C 564.1054 618.70898 590.39493 609.82666 605.41602 590.59961 C 619.65479 572.37215 621.06598 547.21533 608.95508 527.50977 C 607.378 524.94407 602.86133 512.80943 602.86133 490.375 C 602.86133 471.43773 605.25337 451.17872 610.35742 429.42578 C 618.16112 396.15265 594.26085 363.82218 560.16211 361.52539 C 552.77567 361.02882 545.77488 360.76188 539.00391 360.7793 C 527.73026 360.8083 517.26265 361.42108 505.66016 364.08398 C 505.32136 364.17648 504.98346 364.27217 504.64648 364.37109 C 501.16908 364.00101 497.62345 363.74609 493.93945 363.74609 L 483.48633 363.74609 C 481.26459 363.74609 479.38268 363.56264 477.40039 363.42773 C 475.64078 360.84476 473.63494 358.19743 470.98047 355.42773 C 476.6903 352.85403 483.43125 348.23771 492.29883 335.91016 C 505.18017 318.00258 509.77615 304.18601 512.58008 291.40234 C 525.2584 284.21133 534.59063 272.312 538.55273 258.28516 C 538.55273 258.28516 545.77455 232.72606 550.65039 200.85742 C 555.52623 168.98878 561.80464 131.47591 546.39258 89.132812 C 529.5539 42.870213 498.63868 9.3463506 459.75 -14.445312 C 411.84947 -43.750366 357.04032 -55.131085 304.45898 -55.375 L 304.45703 -55.375 z "
               style="fill:#9c9c9c;fill-opacity:1;stroke:none;stroke-width:2;stroke-linecap:butt;stroke-linejoin:miter;stroke-miterlimit:4;stroke-dasharray:none;stroke-opacity:1"
               id="path1010"
               d="m 304.35156,-32.441406 c -16.41359,-0.07612 -32.6585,1.054945 -48.48242,3.277344 C 196.80138,-20.868116 136.18392,0.93270968 85.585938,54.117188 53.65117,87.684382 44.90286,128.7446 37.677734,167.17969 c -6.935145,36.89248 -8.128906,67.80664 -8.128906,67.80664 a 22.936572,22.936572 0 0 1 0,0.008 c -0.495831,12.98108 6.67436,24.87305 18.386719,30.49219 a 22.936572,22.936572 0 0 1 12.28125,14.92773 c 0.444609,1.71682 0.552391,2.30504 0.451172,1.92383 4.300214,16.19525 4.539013,23.52708 16.517578,40.17969 6.048383,8.40842 9.440638,10.72518 11.236328,11.74804 1.79569,1.02287 3.229763,0.98122 10.0625,3.65821 6.101875,2.39065 11.255915,3.75777 17.738285,5.21875 -1.14311,-0.25766 -0.42585,-0.16715 1.94726,0.3457 a 22.936572,22.936572 0 0 1 -0.85156,45 c -2.34324,0.41428 -3.82921,0.63142 -4.44336,0.76172 a 22.936572,22.936572 0 0 1 -14.085938,-1.48242 c -3.578406,-1.59267 -7.413915,-2.52453 -11.324218,-2.75 h -0.002 l -11.666016,-0.63672 c -0.318934,-0.0169 -0.638814,-0.0295 -0.960937,-0.0371 a 22.936572,22.936572 0 0 1 -0.01953,0 c -1.836576,-0.0447 -3.691544,-0.0593 -5.605468,-0.0488 a 22.936572,22.936572 0 0 1 -0.002,0 c -5.787808,0.0317 -12.055556,0.28852 -19.064453,0.74805 l -0.002,-0.0215 c -16.563175,0.81796 -13.159127,-3.27357 -32.849609,6.57032 -17.48992395,8.78046 -23.3248929,29.85801 -12.8359378,46.38281 a 22.936572,22.936572 0 0 1 -6.7402343,31.43945 c -7.7493999,5.10829 -14.2705409,11.76656 -17.6328129,16.81055 a 22.936572,22.936572 0 0 1 -0.03125,0.0449 c -7.299088,10.89385 -12.49414,25.84894 -12.49414,39.51758 0,14.22353 3.193009,28.95456 9.060547,41.92383 a 22.936572,22.936572 0 0 1 0.0098,0.0176 c 3.090393,6.84656 10.726441,17.0952 20.1503909,24.4121 9.4239503,7.31691 20.1017661,11.74219 30.1015621,11.74219 5.762694,0 14.156405,-1.83136 22.138672,-5.36133 a 22.936572,22.936572 0 0 1 11.039063,-1.89257 c 2.738757,0.21119 6.12479,-0.42579 13.328125,-0.42579 13.162866,0 13.797619,0.45019 23.80664,-0.29687 a 22.936572,22.936572 0 0 1 0.585938,-0.0352 c 7.708703,-0.377 10.892263,-0.3273 19.658203,-3.05859 2.69697,-0.84032 4.44112,-1.40752 6.45117,-2.36133 a 22.936572,22.936572 0 0 1 20.19336,0.26172 c 10.63679,5.38711 21.78811,8.26367 31.25195,8.26367 5.02496,0 11.89827,-1.50116 19.04688,-4.49414 a 22.936572,22.936572 0 0 1 18.50976,0.34961 c 6.74885,3.13129 14.35521,3.84817 21.57032,2.0332 a 22.936572,22.936572 0 0 1 11.23828,0.0137 c 4.81514,1.22222 7.60804,1.88476 14.79492,1.88476 10.13099,0 20.72036,-3.04178 29.73242,-7.74609 a 22.936572,22.936572 0 0 1 21.29102,0.0332 c 1.50537,0.79193 3.07282,1.46131 4.68359,2.00781 14.01294,4.66364 18.44965,3.78516 32.17578,3.78516 9.59836,0 20.16622,-0.47473 31.97657,-1.36914 1.75221,-0.14772 3.49017,-0.43406 5.19531,-0.86328 a 22.936572,22.936572 0 0 1 14.32812,1.0332 c 2.43706,1.00322 5.89237,2.05078 12.95313,2.05078 4.89829,0 8.88897,-0.24175 16.94726,-0.68945 v 0.0117 c 5.06859,-0.22438 8.49119,-0.25044 11.32227,-0.17774 l 0.004,-0.0742 c 0.40948,0.0282 0.44291,0.031 0.79687,0.0606 0.0668,0.002 0.21141,-0.006 0.27734,-0.004 l -0.002,0.0254 c 4.82574,0.425 5.15449,0.88622 13.2168,-1.03516 a 22.936572,22.936572 0 0 1 9.95312,-0.15234 c 7.59613,1.56843 13.71826,1.82226 21.98047,1.82226 8.1512,0 17.96031,-0.55132 31.69141,-1.57226 1.6725,-0.14037 3.33214,-0.40763 4.96289,-0.80469 a 22.936572,22.936572 0 0 1 9.01367,-0.36914 c 4.09453,0.6487 7.28405,1.03906 12.35938,1.03906 11.50959,0 32.85184,-7.59775 41.99023,-19.29492 h -0.002 c 8.38887,-10.73883 9.20875,-25.35102 2.07422,-36.96094 v -0.002 c -4.11953,-6.70234 -4.82775,-10.44108 -6.51954,-18.29688 -1.69192,-7.85644 -2.96875,-18.08938 -2.96875,-30.8457 0,-20.86798 2.63845,-42.9017 8.10157,-66.18555 v -0.002 c 4.67108,-19.92141 -8.99087,-38.40304 -29.40625,-39.7793 h -0.002 c -6.96683,-0.46832 -13.43167,-0.71107 -19.55859,-0.69531 -10.35929,0.0266 -18.66707,0.56367 -27.95508,2.66406 -6e-4,1.8e-4 -0.001,-1.7e-4 -0.002,0 a 22.936572,22.936572 0 0 1 -8.88672,0.79883 c -2.94815,-0.31375 -5.65328,-0.49609 -8.2793,-0.49609 h -10.45312 c -3.4842,0 -6.08442,-0.26505 -7.64258,-0.3711 a 22.936572,22.936572 0 0 1 -17.39648,-9.96875 c -1.29893,-1.90672 -2.42881,-3.37707 -4.02539,-5.04296 a 22.936572,22.936572 0 0 1 7.13476,-36.77735 c 2.50842,-1.13067 4.88988,-1.94382 12.125,-12.00195 11.12596,-15.46725 14.07489,-24.99057 16.49609,-36.0293 a 22.936572,22.936572 0 0 1 11.08789,-15.03516 c 7.4353,-4.21722 12.8932,-11.17619 15.2168,-19.40234 a 22.936572,22.936572 0 0 1 0,-0.002 c 0,0 6.85698,-24.32599 11.49805,-54.66016 4.91405,-32.11842 10.09968,-64.04106 -3.13867,-100.412108 C 509.87097,55.845706 483.10449,26.729505 447.78125,5.1191406 404.26936,-21.500988 353.69962,-32.212499 304.35352,-32.441406 a 22.936572,22.936572 0 0 1 -0.002,0 z"
               transform="matrix(0.26458333,0,0,0.26458333,85.190874,121.087)" />
          </g>
        </g>
      </g>
      <g
         style="fill:url(#linearGradient886);fill-opacity:1;stroke:none;stroke-width:0.35277778;stroke-miterlimit:4;stroke-dasharray:none;stroke-opacity:1;filter:url(#filter1113)"
         id="g895">
        <g
           style="fill:url(#linearGradient884);fill-opacity:1;stroke:none;stroke-width:0.35277778;stroke-miterlimit:4;stroke-dasharray:none;stroke-opacity:1"
           id="g918">
          <g
             style="fill:url(#linearGradient882);fill-opacity:1;stroke:none;stroke-width:0.35277778;stroke-miterlimit:4;stroke-dasharray:none;stroke-opacity:1"
             id="g943">
            <path
               transform="matrix(0.26458333,0,0,0.26458333,85.190874,121.087)"
               d="m 304.35156,-32.441406 c -16.41359,-0.07612 -32.6585,1.054945 -48.48242,3.277344 C 196.80138,-20.868116 136.18392,0.93270968 85.585938,54.117188 53.65117,87.684382 44.90286,128.7446 37.677734,167.17969 c -6.935145,36.89248 -8.128906,67.80664 -8.128906,67.80664 a 22.936572,22.936572 0 0 1 0,0.008 c -0.495831,12.98108 6.67436,24.87305 18.386719,30.49219 a 22.936572,22.936572 0 0 1 12.28125,14.92773 c 0.444609,1.71682 0.552391,2.30504 0.451172,1.92383 4.300214,16.19525 4.539013,23.52708 16.517578,40.17969 6.048383,8.40842 9.440638,10.72518 11.236328,11.74804 1.79569,1.02287 3.229763,0.98122 10.0625,3.65821 6.101875,2.39065 11.255915,3.75777 17.738285,5.21875 -1.14311,-0.25766 -0.42585,-0.16715 1.94726,0.3457 a 22.936572,22.936572 0 0 1 -0.85156,45 c -2.34324,0.41428 -3.82921,0.63142 -4.44336,0.76172 a 22.936572,22.936572 0 0 1 -14.085938,-1.48242 c -3.578406,-1.59267 -7.413915,-2.52453 -11.324218,-2.75 h -0.002 l -11.666016,-0.63672 c -0.318934,-0.0169 -0.638814,-0.0295 -0.960937,-0.0371 a 22.936572,22.936572 0 0 1 -0.01953,0 c -1.836576,-0.0447 -3.691544,-0.0593 -5.605468,-0.0488 a 22.936572,22.936572 0 0 1 -0.002,0 c -5.787808,0.0317 -12.055556,0.28852 -19.064453,0.74805 l -0.002,-0.0215 c -16.563175,0.81796 -13.159127,-3.27357 -32.849609,6.57032 -17.48992395,8.78046 -23.3248929,29.85801 -12.8359378,46.38281 a 22.936572,22.936572 0 0 1 -6.7402343,31.43945 c -7.7493999,5.10829 -14.2705409,11.76656 -17.6328129,16.81055 a 22.936572,22.936572 0 0 1 -0.03125,0.0449 c -7.299088,10.89385 -12.49414,25.84894 -12.49414,39.51758 0,14.22353 3.193009,28.95456 9.060547,41.92383 a 22.936572,22.936572 0 0 1 0.0098,0.0176 c 3.090393,6.84656 10.726441,17.0952 20.1503909,24.4121 9.4239503,7.31691 20.1017661,11.74219 30.1015621,11.74219 5.762694,0 14.156405,-1.83136 22.138672,-5.36133 a 22.936572,22.936572 0 0 1 11.039063,-1.89257 c 2.738757,0.21119 6.12479,-0.42579 13.328125,-0.42579 13.162866,0 13.797619,0.45019 23.80664,-0.29687 a 22.936572,22.936572 0 0 1 0.585938,-0.0352 c 7.708703,-0.377 10.892263,-0.3273 19.658203,-3.05859 2.69697,-0.84032 4.44112,-1.40752 6.45117,-2.36133 a 22.936572,22.936572 0 0 1 20.19336,0.26172 c 10.63679,5.38711 21.78811,8.26367 31.25195,8.26367 5.02496,0 11.89827,-1.50116 19.04688,-4.49414 a 22.936572,22.936572 0 0 1 18.50976,0.34961 c 6.74885,3.13129 14.35521,3.84817 21.57032,2.0332 a 22.936572,22.936572 0 0 1 11.23828,0.0137 c 4.81514,1.22222 7.60804,1.88476 14.79492,1.88476 10.13099,0 20.72036,-3.04178 29.73242,-7.74609 a 22.936572,22.936572 0 0 1 21.29102,0.0332 c 1.50537,0.79193 3.07282,1.46131 4.68359,2.00781 14.01294,4.66364 18.44965,3.78516 32.17578,3.78516 9.59836,0 20.16622,-0.47473 31.97657,-1.36914 1.75221,-0.14772 3.49017,-0.43406 5.19531,-0.86328 a 22.936572,22.936572 0 0 1 14.32812,1.0332 c 2.43706,1.00322 5.89237,2.05078 12.95313,2.05078 4.89829,0 8.88897,-0.24175 16.94726,-0.68945 v 0.0117 c 5.06859,-0.22438 8.49119,-0.25044 11.32227,-0.17774 l 0.004,-0.0742 c 0.40948,0.0282 0.44291,0.031 0.79687,0.0606 0.0668,0.002 0.21141,-0.006 0.27734,-0.004 l -0.002,0.0254 c 4.82574,0.425 5.15449,0.88622 13.2168,-1.03516 a 22.936572,22.936572 0 0 1 9.95312,-0.15234 c 7.59613,1.56843 13.71826,1.82226 21.98047,1.82226 8.1512,0 17.96031,-0.55132 31.69141,-1.57226 1.6725,-0.14037 3.33214,-0.40763 4.96289,-0.80469 a 22.936572,22.936572 0 0 1 9.01367,-0.36914 c 4.09453,0.6487 7.28405,1.03906 12.35938,1.03906 11.50959,0 32.85184,-7.59775 41.99023,-19.29492 h -0.002 c 8.38887,-10.73883 9.20875,-25.35102 2.07422,-36.96094 v -0.002 c -4.11953,-6.70234 -4.82775,-10.44108 -6.51954,-18.29688 -1.69192,-7.85644 -2.96875,-18.08938 -2.96875,-30.8457 0,-20.86798 2.63845,-42.9017 8.10157,-66.18555 v -0.002 c 4.67108,-19.92141 -8.99087,-38.40304 -29.40625,-39.7793 h -0.002 c -6.96683,-0.46832 -13.43167,-0.71107 -19.55859,-0.69531 -10.35929,0.0266 -18.66707,0.56367 -27.95508,2.66406 -6e-4,1.8e-4 -0.001,-1.7e-4 -0.002,0 a 22.936572,22.936572 0 0 1 -8.88672,0.79883 c -2.94815,-0.31375 -5.65328,-0.49609 -8.2793,-0.49609 h -10.45312 c -3.4842,0 -6.08442,-0.26505 -7.64258,-0.3711 a 22.936572,22.936572 0 0 1 -17.39648,-9.96875 c -1.29893,-1.90672 -2.42881,-3.37707 -4.02539,-5.04296 a 22.936572,22.936572 0 0 1 7.13476,-36.77735 c 2.50842,-1.13067 4.88988,-1.94382 12.125,-12.00195 11.12596,-15.46725 14.07489,-24.99057 16.49609,-36.0293 a 22.936572,22.936572 0 0 1 11.08789,-15.03516 c 7.4353,-4.21722 12.8932,-11.17619 15.2168,-19.40234 a 22.936572,22.936572 0 0 1 0,-0.002 c 0,0 6.85698,-24.32599 11.49805,-54.66016 4.91405,-32.11842 10.09968,-64.04106 -3.13867,-100.412108 C 509.87097,55.845706 483.10449,26.729505 447.78125,5.1191406 404.26936,-21.500988 353.69962,-32.212499 304.35352,-32.441406 a 22.936572,22.936572 0 0 1 -0.002,0 z"
               id="path874"
               style="fill:url(#linearGradient880);fill-opacity:1;stroke:none;stroke-width:1.33333337;stroke-linecap:butt;stroke-linejoin:miter;stroke-miterlimit:4;stroke-dasharray:none;stroke-opacity:1"
               inkscape:original="M 304.45703 -55.375 C 286.92061 -55.45633 269.58205 -54.248861 252.67969 -51.875 C 190.17299 -43.096061 123.77087 -19.292875 68.970703 38.308594 C 32.024196 77.143715 22.417117 124.22463 15.138672 162.94336 C 7.8602266 201.66208 6.6308594 234.11914 6.6308594 234.11914 C 5.7885538 256.17106 18.118963 276.61841 38.015625 286.16406 C 38.198102 286.86868 38.314384 287.51624 38.501953 288.22266 C 42.411143 302.94525 44.342131 316.13285 58.568359 335.91016 C 73.34431 356.45159 82.615915 356.33766 90.119141 359.27734 C 97.622366 362.21702 104.20278 363.94318 111.17969 365.51562 C 111.86732 365.67061 112.63272 365.75444 113.32617 365.9043 C 111.58944 366.21135 109.84073 366.44837 108.11523 366.81445 C 102.00673 364.0957 95.45639 362.50559 88.78125 362.12109 L 77.046875 361.48047 C 76.48994 361.45057 75.932584 361.42912 75.375 361.41602 C 73.27911 361.36502 71.19274 361.34983 69.085938 361.36133 L 69.083984 361.36133 C 62.71115 361.39623 55.985154 361.67692 48.644531 362.1582 L 49.279297 362.12109 C 36.321302 362.82159 29.972672 359.60926 7.0234375 371.08398 C -22.284497 385.78241 -32.476878 422.58401 -14.90625 450.26562 C -25.083498 456.97431 -33.554725 465.33506 -39 473.50391 C -48.695023 487.97368 -55.375 506.75273 -55.375 525.78711 C -55.375 543.36903 -51.513081 561.16629 -44.275391 577.16406 C -34.326489 599.20521 -5.9697112 626.81641 26.880859 626.81641 C 36.813963 626.81641 47.868264 624.10703 58.294922 619.49609 C 64.117835 619.94511 69.002675 619.13672 73.386719 619.13672 C 86.003544 619.13672 88.048522 619.58731 98.900391 618.77734 C 106.49003 618.40616 113.26724 618.13403 124.25977 614.70898 C 126.96272 613.8668 130.11161 612.88446 133.7207 611.17188 C 147.05834 617.92686 161.47551 621.91016 175.33398 621.91016 C 184.41065 621.91016 193.99942 619.50485 203.23828 615.63672 C 214.75083 620.97824 227.74872 622.20349 240.05664 619.10742 C 245.5513 620.50213 251.31626 621.69727 260.49414 621.69727 C 275.01949 621.69727 289.0106 617.52254 300.83984 611.34766 C 303.42868 612.70957 306.12135 613.86422 308.89258 614.80078 C 325.93022 620.48003 335.46116 619.77734 348.37695 619.77734 C 358.76143 619.77734 369.93573 619.26914 382.22266 618.33594 C 385.23277 618.08533 388.21733 617.58889 391.14648 616.85156 C 396.31631 618.97972 403.16139 620.62891 412.83008 620.62891 C 418.48468 620.62891 423.04103 620.3492 431.04883 619.9043 L 430.49219 619.93359 C 435.79761 619.69242 439.72345 619.68377 441.35742 619.74219 L 439.52539 619.64648 C 444.39178 619.9821 449.37225 620.82282 460.70898 618.12109 C 470.36738 620.11534 478.54068 620.41602 487.32617 620.41602 C 496.51378 620.41602 506.86855 619.8148 520.87891 618.77148 C 523.75303 618.53328 526.60414 618.07094 529.40625 617.38867 C 534.08198 618.12945 538.90428 618.70898 545.35352 618.70898 C 564.1054 618.70898 590.39493 609.82666 605.41602 590.59961 C 619.65479 572.37215 621.06598 547.21533 608.95508 527.50977 C 607.378 524.94407 602.86133 512.80943 602.86133 490.375 C 602.86133 471.43773 605.25337 451.17872 610.35742 429.42578 C 618.16112 396.15265 594.26085 363.82218 560.16211 361.52539 C 552.77567 361.02882 545.77488 360.76188 539.00391 360.7793 C 527.73026 360.8083 517.26265 361.42108 505.66016 364.08398 C 505.32136 364.17648 504.98346 364.27217 504.64648 364.37109 C 501.16908 364.00101 497.62345 363.74609 493.93945 363.74609 L 483.48633 363.74609 C 481.26459 363.74609 479.38268 363.56264 477.40039 363.42773 C 475.64078 360.84476 473.63494 358.19743 470.98047 355.42773 C 476.6903 352.85403 483.43125 348.23771 492.29883 335.91016 C 505.18017 318.00258 509.77615 304.18601 512.58008 291.40234 C 525.2584 284.21133 534.59063 272.312 538.55273 258.28516 C 538.55273 258.28516 545.77455 232.72606 550.65039 200.85742 C 555.52623 168.98878 561.80464 131.47591 546.39258 89.132812 C 529.5539 42.870213 498.63868 9.3463506 459.75 -14.445312 C 411.84947 -43.750366 357.04032 -55.131085 304.45898 -55.375 L 304.45703 -55.375 z "
               inkscape:radius="-22.934278"
               sodipodi:type="inkscape:offset" />
          </g>
        </g>
      </g>
      <g
         transform="translate(-0.62741544,1.5875)"
         id="g919">
        <path
           style="fill:none;fill-opacity:1;stroke:url(#linearGradient932);stroke-width:7.43566942;stroke-linecap:butt;stroke-linejoin:miter;stroke-miterlimit:4;stroke-dasharray:none;stroke-opacity:1"
           d="m 151.86143,177.17929 c 0,0 -2.9105,20.22165 -6.24723,22.81596 -5.13363,3.99142 -30.25862,1.22247 -32.40588,-1.76264 -3.39783,-4.72366 -5.76191,-21.51111 -5.76191,-21.51111 h 102.49425 c 0,0 -2.36408,16.78745 -5.76192,21.51111 -2.14728,2.98511 -27.27238,5.75406 -32.40602,1.76264 -3.33673,-2.59431 -6.24723,-22.81596 -6.24723,-22.81596"
           id="path4504"
           inkscape:connector-curvature="0"
           sodipodi:nodetypes="cssccssc" />
        <path
           style="fill:url(#linearGradient1075);fill-opacity:1;stroke:none;stroke-width:0.27906629px;stroke-linecap:butt;stroke-linejoin:miter;stroke-opacity:1"
           d="m 192.44061,147.29804 c 0,0 -5.69611,18.59606 -11.79142,23.01901 -11.43943,8.3009 -32.46928,9.26786 -46.37591,10.81895 -13.71098,1.52928 -32.06057,-0.70061 -32.06057,-0.70061 0,0 1.20388,-30.44858 12.46855,-42.28907 12.04378,-12.65944 25.33881,-17.38777 40.02973,-19.45108 15.11478,-2.12282 32.08412,-0.0722 45.10394,7.89319 6.5247,3.99174 14.18692,12.73056 16.80306,19.91814 4.31253,11.84825 -2.41203,35.78121 -2.41203,35.78121 0,0 -3.13837,-15.20507 -9.04451,-21.14021 -10.74101,-10.79375 -12.72084,-13.84953 -12.72084,-13.84953 z"
           id="path4508"
           inkscape:connector-curvature="0"
           sodipodi:nodetypes="csscsssscsc" />
      </g>
      <flowRoot
         transform="matrix(0.26458333,0,0,0.26458333,-8.1312842,201.52359)"
         style="font-style:normal;font-weight:normal;font-size:40px;line-height:1.25;font-family:sans-serif;text-align:end;letter-spacing:0px;word-spacing:0px;text-anchor:end;fill:url(#linearGradient940);fill-opacity:1;stroke:none;stroke-width:4;stroke-miterlimit:4;stroke-dasharray:none;stroke-opacity:1"
         id="flowRoot841"
         xml:space="preserve"><flowRegion
           style="fill:url(#linearGradient890);fill-opacity:1;stroke:none;stroke-width:4;stroke-miterlimit:4;stroke-dasharray:none;stroke-opacity:1"
           id="flowRegion843"><rect
             style="fill:url(#linearGradient888);fill-opacity:1;stroke:none;stroke-width:4;stroke-miterlimit:4;stroke-dasharray:none;stroke-opacity:1"
             y="55.989796"
             x="349.51279"
             height="360.41632"
             width="841.29816"
             id="rect845" /></flowRegion><flowPara
           style="font-style:normal;font-variant:normal;font-weight:normal;font-stretch:normal;font-size:213.33334351px;font-family:'Action Is';-inkscape-font-specification:'Action Is';text-align:start;text-anchor:start;fill:url(#linearGradient892);fill-opacity:1;stroke:none;stroke-width:4;stroke-miterlimit:4;stroke-dasharray:none;stroke-opacity:1"
           id="flowPara847">austin</flowPara></flowRoot>    </g>
  </g>
</svg>
